<svg width="88" height="88" fill="none" xmlns="http://www.w3.org/2000/svg"><circle cx="44" cy="44" r="44" fill="#3A3054"/><path fill-rule="evenodd" clip-rule="evenodd" d="M67.6 26.02a.98.98 0 0 0-.92-.05l-7.62 3.6a8.28 8.28 0 0 0-4.73 6.83l-.2 2.44-3.95 6.56V42.57c0-.1-.02-.2-.05-.28l-1.84-5.52 3.76-7.5a.98.98 0 0 0-.1-1.03l-5.9-7.87a1.02 1.02 0 0 0-1.58 0l-5.9 7.87c-.22.3-.26.7-.09 1.03l3.75 7.5-1.84 5.52a.97.97 0 0 0-.04.28V46.52l-6.13-9.3-.01-.01-.02-.01a1 1 0 0 0-.23-.24l-.03-.02-.02-.02h-.02l-3.6-2.1-1.5-2.26-2.16-3.29a.98.98 0 0 0-1.15-.38l-3.83 1.34a.98.98 0 0 0-.49 1.47l2.7 4.1 1.5 2.27.5 4.14v.04l.02.06a.97.97 0 0 0 .12.31v.02l.67 1c2.86 4.34 13.97 21.17 14.03 21.22a4.87 4.87 0 0 0 5.75 3 4.89 4.89 0 0 0 3.02-2.24l13.08-21.7 2.07-1.3a8.34 8.34 0 0 0 3.84-7.38l-.38-8.42a.98.98 0 0 0-.47-.8ZM60.5 43.54l-1.53 2.53-5.05-3.05 1.52-2.52 5.06 3.04Zm-18.18.04v14.87l5.9-9.79v-5.08h-5.9Zm1.7-5.9h2.51l1.31 3.93H42.7l1.3-3.93Zm.27-7.87a.98.98 0 1 0 1.97 0 .98.98 0 0 0-1.97 0Zm.99-7.2L50 28.92l-3.39 6.78h-.37v-3.13a2.95 2.95 0 1 0-1.97 0v3.13h-.37l-3.4-6.78 4.76-6.33ZM31.24 38l.29-.2-2.43-1.4a.99.99 0 0 1-.33-.3l-1.08-1.65-1.64 1.08 1.08 1.64c.08.13.14.28.16.43l.33 2.78 3.62-2.38Zm-5.83-7.02 1.2 1.82-1.64 1.09-1.48-2.24 1.92-.67Zm7.7 8.13-2.45 1.63-2.47 1.62 12.16 18.45V50.1l-7.23-10.98ZM47.8 64.6a2.95 2.95 0 1 1-5.07-3.02l.02-.03 7.43-12.32h.01v-.02l2.71-4.5 2.53 1.53 2.53 1.52L47.8 64.6Zm15.78-23.65a6.35 6.35 0 0 0 2.93-5.62l-.1-2.27-2.3.57a4.03 4.03 0 0 0-2.98 3.05.98.98 0 1 1-1.92-.43 5.99 5.99 0 0 1 4.43-4.53l2.38-.59c.1-.02.2-.02.3-.01l-.13-2.74-6.3 2.96a6.32 6.32 0 0 0-3.6 5.21l-.16 2.07 2.85 1.72 2.85 1.71 1.75-1.1Z" fill="#2BD0D0"/></svg>