<svg width="1110" height="168" fill="none" xmlns="http://www.w3.org/2000/svg"><rect width="1110" height="168" rx="10" fill="#3A3054"/><mask id="a" style="mask-type:alpha" maskUnits="userSpaceOnUse" x="0" y="0" width="1110" height="168"><rect width="1110" height="168" rx="10" fill="#fff"/></mask><g mask="url(#a)" fill-rule="evenodd" clip-rule="evenodd" fill="#4B3F6B"><path d="M647-93.92c0 52.72 15.5 90.48 73 114.87 57.5 24.4 113.05 2.14 168.79 14.9C944.52 48.6 944.52 130.8 997 181.4c52.48 50.58 163.14 62.87 253.12 11.55C1340.1 141.63 1380.88 21.8 1354-48.85 1327.12-119.52 1275.59-184 1027-184c-248.6 0-380 37.35-380 90.08ZM-134 119.08c0 52.72 15.5 90.48 73 114.87 57.5 24.4 113.06 2.14 168.79 14.9C163.52 261.6 163.52 343.8 216 394.4c52.48 50.58 163.14 62.87 253.12 11.55C559.1 354.63 599.88 234.8 573 164.15 546.12 93.48 494.6 29 246 29s-380 37.35-380 90.08Z"/></g></svg>