<svg width="88" height="88" fill="none" xmlns="http://www.w3.org/2000/svg"><circle cx="44" cy="44" r="44" fill="#3A3054"/><path fill-rule="evenodd" clip-rule="evenodd" d="M24 43.97A20 20 0 0 1 43.97 24a20 20 0 0 1 19.97 19.97 20 20 0 0 1-19.97 19.97A20 20 0 0 1 24 43.97Zm27.77 15.6a17.8 17.8 0 0 0-15.6 0 17.34 17.34 0 0 0 15.6 0Zm2.44-1.48a20.23 20.23 0 0 0-20.49 0 17.44 17.44 0 0 1-7.22-14.12h4.99v-2.5h-4.8a17.4 17.4 0 0 1 4.68-9.58l2.9 2.89L36.02 33l-2.8-2.8a17.36 17.36 0 0 1 9.49-3.65v3.68h2.5v-3.68c3.56.25 6.83 1.58 9.49 3.66l-2.8 2.8 1.77 1.76 2.88-2.89a17.4 17.4 0 0 1 4.68 9.58h-4.8v2.5h5c0 5.8-2.86 10.94-7.23 14.12ZM42.78 34.85c-.63 1.98-3.8 11.96-3.8 14.11a5 5 0 0 0 9.98 0c0-2.15-3.17-12.13-3.8-14.1-.33-1.04-2.05-1.04-2.38 0Zm1.19 16.6a2.5 2.5 0 0 1-2.5-2.49c0-1.02 1.27-5.5 2.5-9.54 1.23 4.05 2.5 8.52 2.5 9.54a2.5 2.5 0 0 1-2.5 2.5Z" fill="#2BD0D0"/></svg>