<svg width="88" height="88" fill="none" xmlns="http://www.w3.org/2000/svg"><circle cx="44" cy="44" r="44" fill="#3A3054"/><path fill-rule="evenodd" clip-rule="evenodd" d="M32.38 41.76a3.5 3.5 0 0 1-5.96-2.53 3.52 3.52 0 1 1 7 .44l3.45 1.72a3.5 3.5 0 0 1 3.96-.64l4.69-4.69a3.52 3.52 0 0 1 5.12-4.44l4.07-3.05a3.52 3.52 0 1 1 1.4 1.87l-4.07 3.06a3.52 3.52 0 0 1-4.87 4.22l-4.69 4.69a3.52 3.52 0 1 1-6.66 1.08l-3.44-1.73Zm26.85-14.24a1.17 1.17 0 1 0-2.34 0 1.17 1.17 0 0 0 2.34 0ZM48.7 33.38a1.17 1.17 0 1 1 0 2.34 1.17 1.17 0 0 1 0-2.34Zm-8.2 10.54a1.17 1.17 0 1 0-2.35 0 1.17 1.17 0 0 0 2.34 0Zm-10.55-5.86a1.17 1.17 0 1 1 0 2.35 1.17 1.17 0 0 1 0-2.35Zm31.64 23.6h1.25a1.17 1.17 0 1 1 0 2.34H25.17a1.17 1.17 0 1 1 0-2.34h1.25V48.6c0-.65.53-1.17 1.17-1.17h4.7c.64 0 1.16.52 1.16 1.17v13.05h2.35V53.3c0-.65.52-1.17 1.17-1.17h4.69c.64 0 1.17.52 1.17 1.17v8.36h2.34V43.92c0-.65.53-1.17 1.17-1.17h4.7c.64 0 1.16.52 1.16 1.17v17.74h2.35V36.89c0-.65.52-1.17 1.17-1.17h4.69c.64 0 1.17.52 1.17 1.17v24.77Zm-2.35 0v-23.6H56.9v23.6h2.34ZM47.52 45.09h2.34v16.57h-2.34V45.09Zm-7.04 16.57v-7.2h-2.34v7.2h2.34ZM28.77 49.78h2.34v11.88h-2.34V49.78Z" fill="#2BD0D0"/></svg>